<svg xmlns="http://www.w3.org/2000/svg" viewBox="0 0 113 85.311">
<g id="Logo_Core" data-name="Logo Core" transform="translate(0 -36.688)">
<path id="Path_6" d="M211.556,463.907a21.051,21.051,0,0,0-15.692,6.7c-4.273,4.42-6.409,10.535-6.409,18.27,0,7.809,2.136,14,6.483,18.491a21.329,21.329,0,0,0,15.913,6.778c5.6,0,10.093-1.547,13.482-4.568a22.47,22.47,0,0,0,6.7-10.314l16.8,6.115a38.128,38.128,0,0,1-12.819,18.491c-6.336,5.157-14.366,7.736-24.164,7.736-11.787,0-21.659-4.052-29.616-12.229s-11.935-18.344-11.935-30.5c0-12.3,3.9-22.469,11.788-30.5S199.695,446.3,211.409,446.3q15.029,0,24.532,7.736a35.341,35.341,0,0,1,12.3,18.639l-17.165,6.262a21.542,21.542,0,0,0-6.336-10.609C221.5,465.381,217.155,463.907,211.556,463.907Z" transform="translate(-170.3 -409.612)" fill="#fff"></path>
<path id="Path_5" d="M872.051,547.542A13.454,13.454,0,0,1,868,537.67a13.62,13.62,0,0,1,4.052-9.946,13.13,13.13,0,0,1,9.872-4.125,14.084,14.084,0,0,1,14.071,14.071,13.133,13.133,0,0,1-4.125,9.872,13.745,13.745,0,0,1-9.946,4.052A13.458,13.458,0,0,1,872.051,547.542Z" transform="translate(-782.996 -429.963)" fill="silver"></path>
</g>
</svg>